#define ditroff_width 64
#define ditroff_height 64
static char ditroff_bits[] = {
    0x00, 0x00, 0x00, 0x00, 0x00, 0x00, 0x00, 0x00, 0x00, 0xff, 0xff, 0xff, 
    0xff, 0xff, 0x01, 0x00, 0x00, 0x01, 0x00, 0x00, 0xf0, 0x3f, 0x01, 0x00, 
    0x00, 0x01, 0x88, 0x88, 0x0c, 0xc0, 0x01, 0x00, 0x00, 0x01, 0x10, 0x11, 
    0x83, 0x03, 0x07, 0x00, 0x00, 0x01, 0x44, 0xc4, 0x80, 0x03, 0x18, 0x00, 
    0x00, 0x01, 0x20, 0x22, 0x80, 0x03, 0x20, 0x00, 0x00, 0x01, 0x00, 0x18, 
    0xc0, 0x07, 0xc0, 0x00, 0x00, 0x01, 0x00, 0x04, 0xc0, 0x07, 0x00, 0x01, 
    0x00, 0x41, 0x44, 0x06, 0xc0, 0x07, 0x00, 0x02, 0x00, 0x21, 0x22, 0x02, 
    0xe0, 0x0f, 0x00, 0x02, 0x00, 0x89, 0x88, 0x01, 0xe0, 0x0f, 0x00, 0x04, 
    0x00, 0x11, 0x91, 0x01, 0xf0, 0x1f, 0x00, 0x08, 0x00, 0x01, 0xc0, 0x00, 
    0x30, 0x1f, 0x00, 0x08, 0x00, 0x01, 0x62, 0x00, 0x30, 0x1f, 0x00, 0x10, 
    0x00, 0x89, 0x48, 0x00, 0x38, 0x3f, 0x00, 0x10, 0x00, 0x11, 0x31, 0x00, 
    0x18, 0x3e, 0x00, 0x20, 0x00, 0x41, 0x24, 0x00, 0x1c, 0x7e, 0x00, 0x20, 
    0x00, 0x21, 0x22, 0x00, 0x0c, 0x7c, 0x00, 0x20, 0x00, 0x01, 0x10, 0x00, 
    0x0c, 0x7c, 0x00, 0x40, 0x00, 0x01, 0x10, 0x00, 0x0e, 0xfc, 0x00, 0x40, 
    0x00, 0x41, 0x14, 0x00, 0x06, 0xf8, 0x00, 0x40, 0x00, 0x21, 0x12, 0x00, 
    0xff, 0xff, 0x01, 0x40, 0x00, 0x89, 0x18, 0x00, 0xff, 0xff, 0x01, 0x40, 
    0x00, 0x11, 0x11, 0x00, 0x03, 0xf0, 0x01, 0x40, 0x00, 0x41, 0x10, 0x80, 
    0x03, 0xf0, 0x03, 0x40, 0x00, 0x01, 0x10, 0x80, 0x01, 0xe0, 0x03, 0x40, 
    0x00, 0x89, 0x18, 0x80, 0x01, 0xe0, 0x03, 0x40, 0x00, 0x11, 0x31, 0xc0, 
    0x01, 0xe0, 0x07, 0x20, 0x00, 0x41, 0x24, 0xc0, 0x00, 0xc0, 0x07, 0x20, 
    0x00, 0x21, 0x22, 0xf0, 0x00, 0xc0, 0x0f, 0x20, 0x00, 0x01, 0x40, 0xfe, 
    0x07, 0xf8, 0xff, 0x10, 0x00, 0x11, 0x51, 0xfe, 0x07, 0xf8, 0xff, 0x10, 
    0x00, 0x41, 0xc4, 0x00, 0x00, 0x00, 0x00, 0x18, 0x00, 0x21, 0xa2, 0x00, 
    0x00, 0x00, 0x00, 0x38, 0x00, 0x89, 0x88, 0x01, 0x00, 0x00, 0x00, 0x7c, 
    0x00, 0x11, 0x11, 0x03, 0x00, 0x00, 0x00, 0xfe, 0x00, 0x01, 0x00, 0x06, 
    0x00, 0x00, 0x00, 0xfe, 0x00, 0x21, 0x02, 0x06, 0x00, 0x00, 0x00, 0xff, 
    0x00, 0x89, 0x88, 0x18, 0x00, 0x00, 0xc0, 0xff, 0x00, 0x11, 0x11, 0x31, 
    0x00, 0x00, 0xe0, 0xff, 0x00, 0x41, 0x44, 0xc0, 0x00, 0x00, 0xf8, 0xff, 
    0x00, 0x01, 0x00, 0x00, 0x03, 0x00, 0xff, 0xff, 0x00, 0x09, 0x88, 0x88, 
    0x1c, 0xc0, 0xf1, 0xff, 0x00, 0x11, 0x11, 0x11, 0xf1, 0x3f, 0xe1, 0xff, 
    0x00, 0x41, 0x44, 0x44, 0x44, 0x04, 0x81, 0xff, 0x00, 0x21, 0x02, 0x22, 
    0x20, 0x22, 0x01, 0xff, 0x00, 0x01, 0x00, 0x00, 0x00, 0x00, 0x01, 0xfe, 
    0x00, 0x01, 0x00, 0x00, 0x00, 0x00, 0x01, 0xf8, 0x00, 0xff, 0xff, 0xff, 
    0xff, 0xff, 0x01, 0xf0, 0x00, 0x00, 0x00, 0x00, 0x00, 0x00, 0x00, 0xe0, 
    0x00, 0x00, 0x00, 0x00, 0x00, 0x00, 0x00, 0x80, 0x00, 0x07, 0x02, 0x01, 
    0x00, 0xc0, 0x60, 0x00, 0x00, 0x09, 0x00, 0x01, 0x00, 0x20, 0x10, 0x00, 
    0x00, 0x91, 0xc3, 0xa7, 0xe1, 0x20, 0x10, 0x00, 0x00, 0x11, 0x02, 0x61, 
    0x12, 0xf9, 0x7c, 0x00, 0x00, 0x11, 0x02, 0x21, 0x10, 0x21, 0x10, 0x00, 
    0x00, 0x11, 0x02, 0x21, 0x10, 0x21, 0x10, 0x00, 0x00, 0x11, 0x02, 0x21, 
    0x10, 0x21, 0x10, 0x00, 0x00, 0x09, 0x02, 0x21, 0x10, 0x21, 0x10, 0x00, 
    0x00, 0x07, 0x02, 0x26, 0xe0, 0x20, 0x10, 0x00, 0x00, 0x00, 0x00, 0x00, 
    0x00, 0x00, 0x00, 0x00, 0x00, 0x00, 0x00, 0x00, 0x00, 0x00, 0x00, 0x00, 
    0x00, 0x00, 0x00, 0x00, 0x00, 0x00, 0x00, 0x00};
