#define hand_width 16
#define hand_height 16
#define hand_x_hot 8
#define hand_y_hot 8
static char hand_bits[] = {
   0x80, 0x00, 0x40, 0x09, 0x48, 0x15, 0x54, 0x15, 0x54, 0x15, 0x54, 0x15,
   0x54, 0x15, 0x54, 0x15, 0x74, 0xd2, 0x04, 0xa8, 0x08, 0xa8, 0x18, 0xa8,
   0x30, 0x90, 0x20, 0x40, 0x20, 0x20, 0x60, 0x18};
