STARTFONT 2.1
COMMENT 
COMMENT  Copyright Oxford University Press, 1989
COMMENT  Portions Copyright 1984, 1987 Adobe Systems, Inc.
COMMENT  Portions Copyright 1988 Digital Equipment Corporation
COMMENT  Helvetica is a registered trademark of Linotype.
COMMENT 
COMMENT  Permission to use, copy, modify, and distribute this software and
COMMENT  its documentation for any purpose and without fee is hereby granted,
COMMENT  provided that the above copyright notices appear in all copies and
COMMENT  that both those copyright notices and this permission notice appear
COMMENT  in supporting documentation, and that the names of Adobe Systems and
COMMENT  Digital Equipment Corporation not be used in advertising or
COMMENT  publicity pertaining to distribution of the software without
COMMENT  specific, written prior permission.  Adobe Systems and Digital
COMMENT  Equipment Corporation make no representations about the suitability
COMMENT  of this software for any purpose.  It is provided "as is" without
COMMENT  express or implied warranty.
COMMENT 
COMMENT  OXFORD UNIVERSITY PRESS AND
COMMENT  ADOBE SYSTEMS AND DIGITAL EQUIPMENT CORPORATION DISCLAIM ALL
COMMENT  WARRANTIES WITH REGARD TO THIS SOFTWARE, INCLUDING ALL IMPLIED
COMMENT  WARRANTIES OF MERCHANTABILITY AND FITNESS, IN NO EVENT SHALL ADOBE
COMMENT  SYSTEMS AND DIGITAL EQUIPMENT CORPORATION BE LIABLE FOR ANY SPECIAL,
COMMENT  INDIRECT OR CONSEQUENTIAL DAMAGES OR ANY DAMAGES WHATSOEVER
COMMENT  RESULTING FROM LOSS OF USE, DATA OR PROFITS, WHETHER IN AN ACTION OF
COMMENT  CONTRACT, NEGLIGENCE OR OTHER TORTIOUS ACTION, ARISING OUT OF OR IN
COMMENT  CONNECTION WITH THE USE OR PERFORMANCE OF THIS SOFTWARE.
COMMENT 
COMMENT 
FONT -oup-Helvetica-Greek-R-Normal--14-140-75-75-P-77-ISO8859-1
SIZE 14 75 75
FONTBOUNDINGBOX 15 17 -1 -3
STARTPROPERTIES 23
COMMENT Begin LogicalFontDescription
FONTNAME_REGISTRY ""
FAMILY_NAME "HelveticaGK"
FOUNDRY "Adobe + Oxford University Press"
WEIGHT_NAME "Medium"
SETWIDTH_NAME "Normal"
SLANT "R"
ADD_STYLE_NAME ""
PIXEL_SIZE 14
POINT_SIZE 140
RESOLUTION_X 75
RESOLUTION_Y 75
SPACING "P"
AVERAGE_WIDTH 77
CHARSET_REGISTRY "ISO8859"
CHARSET_ENCODING "1"
DEVICE_FONT_NAME "Helvetica"
COMMENT END LogicalFontDescription
CHARSET_COLLECTIONS "ASCII ISOLATIN1 ADOBESTANDARD"
FULL_NAME "Helvetica Greek"
COPYRIGHT "Copyright (c) 1985,1987 Adobe Systems, Inc., Portions Copyright 1988 Digital Equipment Corp."
COMMENT ***** end of inserted font properties
FONT_ASCENT 13
FONT_DESCENT 3
CAP_HEIGHT 11
X_HEIGHT 8
ENDPROPERTIES 
CHARS 220
STARTCHAR space
ENCODING 32
SWIDTH 278 0
DWIDTH 4 0
BBX 1 1 0 0
BITMAP
00
ENDCHAR
STARTCHAR exclam
ENCODING 33
SWIDTH 278 0
DWIDTH 4 0
BBX 1 11 2 0
BITMAP
80
80
80
80
80
80
80
80
00
80
80
ENDCHAR
STARTCHAR quotedblright
ENCODING 34
SWIDTH 333 0
DWIDTH 6 0
BBX 5 3 1 8
BITMAP
D8
48
90
ENDCHAR
STARTCHAR numbersign
ENCODING 35
SWIDTH 556 0
DWIDTH 8 0
BBX 7 10 0 0
BITMAP
14
14
14
7E
28
28
FC
50
50
50
ENDCHAR
STARTCHAR dollar
ENCODING 36
SWIDTH 556 0
DWIDTH 8 0
BBX 7 14 0 -2
BITMAP
10
10
7C
92
92
50
38
14
12
92
92
7C
10
10
ENDCHAR
STARTCHAR percent
ENCODING 37
SWIDTH 889 0
DWIDTH 12 0
BBX 11 10 0 0
BITMAP
7080
8900
8900
7200
0200
0400
09C0
1220
1220
21C0
ENDCHAR
STARTCHAR ampersand
ENCODING 38
SWIDTH 667 0
DWIDTH 10 0
BBX 8 10 1 0
BITMAP
30
48
48
30
20
52
8A
84
8A
71
ENDCHAR
STARTCHAR quoteright
ENCODING 39
SWIDTH 222 0
DWIDTH 3 0
BBX 2 3 1 8
BITMAP
C0
40
80
ENDCHAR
STARTCHAR parenleft
ENCODING 40
SWIDTH 333 0
DWIDTH 5 0
BBX 3 14 1 -3
BITMAP
20
40
40
80
80
80
80
80
80
80
80
40
40
20
ENDCHAR
STARTCHAR parenright
ENCODING 41
SWIDTH 333 0
DWIDTH 5 0
BBX 3 14 1 -3
BITMAP
80
40
40
20
20
20
20
20
20
20
20
40
40
80
ENDCHAR
STARTCHAR asterisk
ENCODING 42
SWIDTH 389 0
DWIDTH 7 0
BBX 5 5 1 6
BITMAP
20
A8
70
A8
20
ENDCHAR
STARTCHAR plus
ENCODING 43
SWIDTH 584 0
DWIDTH 9 0
BBX 7 7 1 1
BITMAP
10
10
10
FE
10
10
10
ENDCHAR
STARTCHAR comma
ENCODING 44
SWIDTH 278 0
DWIDTH 3 0
BBX 2 4 0 -2
BITMAP
40
40
40
80
ENDCHAR
STARTCHAR minus
ENCODING 45
SWIDTH 584 0
DWIDTH 9 0
BBX 7 1 1 4
BITMAP
FE
ENDCHAR
STARTCHAR period
ENCODING 46
SWIDTH 278 0
DWIDTH 3 0
BBX 1 2 1 0
BITMAP
80
80
ENDCHAR
STARTCHAR slash
ENCODING 47
SWIDTH 278 0
DWIDTH 4 0
BBX 4 11 0 0
BITMAP
10
10
20
20
20
40
40
40
80
80
80
ENDCHAR
STARTCHAR zero
ENCODING 48
SWIDTH 556 0
DWIDTH 8 0
BBX 6 10 1 0
BITMAP
78
84
84
84
84
84
84
84
84
78
ENDCHAR
STARTCHAR one
ENCODING 49
SWIDTH 556 0
DWIDTH 8 0
BBX 3 10 2 0
BITMAP
20
E0
20
20
20
20
20
20
20
20
ENDCHAR
STARTCHAR two
ENCODING 50
SWIDTH 556 0
DWIDTH 8 0
BBX 6 10 1 0
BITMAP
78
84
84
08
10
20
40
80
80
FC
ENDCHAR
STARTCHAR three
ENCODING 51
SWIDTH 556 0
DWIDTH 8 0
BBX 6 10 1 0
BITMAP
78
84
84
04
38
04
04
84
84
78
ENDCHAR
STARTCHAR four
ENCODING 52
SWIDTH 556 0
DWIDTH 8 0
BBX 7 10 1 0
BITMAP
0C
14
24
24
44
84
FE
04
04
04
ENDCHAR
STARTCHAR five
ENCODING 53
SWIDTH 556 0
DWIDTH 8 0
BBX 6 10 1 0
BITMAP
FC
80
80
80
F8
04
04
84
84
78
ENDCHAR
STARTCHAR six
ENCODING 54
SWIDTH 556 0
DWIDTH 8 0
BBX 6 10 1 0
BITMAP
78
84
80
80
B8
C4
84
84
84
78
ENDCHAR
STARTCHAR seven
ENCODING 55
SWIDTH 556 0
DWIDTH 8 0
BBX 6 10 1 0
BITMAP
FC
04
08
08
10
10
20
20
40
40
ENDCHAR
STARTCHAR eight
ENCODING 56
SWIDTH 556 0
DWIDTH 8 0
BBX 6 10 1 0
BITMAP
78
84
84
84
78
84
84
84
84
78
ENDCHAR
STARTCHAR nine
ENCODING 57
SWIDTH 556 0
DWIDTH 8 0
BBX 6 10 1 0
BITMAP
78
84
84
84
84
7C
04
84
84
78
ENDCHAR
STARTCHAR colon
ENCODING 58
SWIDTH 278 0
DWIDTH 3 0
BBX 1 8 1 0
BITMAP
80
80
00
00
00
00
80
80
ENDCHAR
STARTCHAR semicolon
ENCODING 59
SWIDTH 278 0
DWIDTH 4 0
BBX 2 10 0 -2
BITMAP
40
40
00
00
00
00
40
40
40
80
ENDCHAR
STARTCHAR less
ENCODING 60
SWIDTH 584 0
DWIDTH 8 0
BBX 6 5 1 2
BITMAP
0C
30
C0
30
0C
ENDCHAR
STARTCHAR equal
ENCODING 61
SWIDTH 584 0
DWIDTH 9 0
BBX 6 3 1 3
BITMAP
FC
00
FC
ENDCHAR
STARTCHAR greater
ENCODING 62
SWIDTH 584 0
DWIDTH 8 0
BBX 6 5 1 2
BITMAP
C0
30
0C
30
C0
ENDCHAR
STARTCHAR question
ENCODING 63
SWIDTH 556 0
DWIDTH 8 0
BBX 6 11 1 0
BITMAP
30
CC
84
84
04
08
10
20
00
20
20
ENDCHAR
STARTCHAR at
ENCODING 64
SWIDTH 1015 0
DWIDTH 13 0
BBX 11 12 1 -1
BITMAP
0F00
30C0
4020
46A0
8920
9120
9120
9340
8D80
4000
6080
1F00
ENDCHAR
STARTCHAR A alpha
ENCODING 65
SWIDTH 667 0
DWIDTH 11 0
BBX 9 11 1 0
BITMAP
0800
0800
1400
1400
2200
2200
4100
7F00
4100
8080
8080
ENDCHAR
STARTCHAR B beta
ENCODING 66
SWIDTH 667 0
DWIDTH 9 0
BBX 7 11 1 0
BITMAP
FC
86
82
82
82
FC
82
82
82
82
FC
ENDCHAR
STARTCHAR C xi
ENCODING 67
SWIDTH 667 0
DWIDTH 9 0
BBX 8 9 1 0
BITMAP
FF
00
00
00
7E
00
00
00
FF
ENDCHAR
STARTCHAR D delta
ENCODING 68
SWIDTH 722 0
DWIDTH 10 0
BBX 9 11 1 0
BITMAP
0800
0800
1C00
1400
3600
2200
6300
4100
C180
8080
FF80
ENDCHAR
STARTCHAR E epsilon
ENCODING 69
SWIDTH 667 0
DWIDTH 9 0
BBX 7 11 1 0
BITMAP
FE
80
80
80
80
FC
80
80
80
80
FE
ENDCHAR
STARTCHAR F phi
ENCODING 70
SWIDTH 611 0
DWIDTH 10 0
BBX 9 11 1 0
BITMAP
0800
0800
3E00
4900
8880
8880
8880
4900
3E00
0800
0800
ENDCHAR
STARTCHAR G gamma
ENCODING 71
SWIDTH 778 0
DWIDTH 8 0
BBX 7 11 1 0
BITMAP
FE
80
80
80
80
80
80
80
80
80
80
ENDCHAR
STARTCHAR H eta
ENCODING 72
SWIDTH 722 0
DWIDTH 10 0
BBX 8 11 1 0
BITMAP
81
81
81
81
81
FF
81
81
81
81
81
ENDCHAR
STARTCHAR I iota
ENCODING 73
SWIDTH 278 0
DWIDTH 5 0
BBX 1 11 2 0
BITMAP
80
80
80
80
80
80
80
80
80
80
80
ENDCHAR
STARTCHAR J word end sigma
ENCODING 74
SWIDTH 500 0
DWIDTH 8 0
BBX 6 11 1 0
BITMAP
04
04
04
04
04
04
04
04
84
84
78
ENDCHAR
STARTCHAR K kappa
ENCODING 75
SWIDTH 667 0
DWIDTH 10 0
BBX 8 11 1 0
BITMAP
82
84
88
90
A0
E0
90
88
84
82
81
ENDCHAR
STARTCHAR L lambda
ENCODING 76
SWIDTH 722 0
DWIDTH 10 0
BBX 9 11 1 0
BITMAP
0800
0800
1C00
1400
3600
2200
6300
4100
C180
8080
8080
ENDCHAR
STARTCHAR M mu
ENCODING 77
SWIDTH 833 0
DWIDTH 13 0
BBX 11 11 1 0
BITMAP
8020
8020
C060
A0A0
A0A0
9120
9120
8A20
8A20
8420
8420
ENDCHAR
STARTCHAR Nnu
ENCODING 78
SWIDTH 722 0
DWIDTH 10 0
BBX 8 11 1 0
BITMAP
C1
C1
A1
91
91
89
89
85
85
83
83
ENDCHAR
STARTCHAR O omicron
ENCODING 79
SWIDTH 778 0
DWIDTH 11 0
BBX 9 11 1 0
BITMAP
1C00
6300
4100
8080
8080
8080
8080
8080
4100
6300
1C00
ENDCHAR
STARTCHAR P pi
ENCODING 80
SWIDTH 667 0
DWIDTH 9 0
BBX 8 11 1 0
BITMAP
FF
81
81
81
81
81
81
81
81
81
81
ENDCHAR
STARTCHAR Q theta
ENCODING 81
SWIDTH 778 0
DWIDTH 8 0
BBX 7 11 1 0
BITMAP
38
44
44
82
82
BA
82
82
44
44
38
ENDCHAR
STARTCHAR R rho
ENCODING 82
SWIDTH 722 0
DWIDTH 9 0
BBX 7 11 1 0
BITMAP
F8
84
82
82
84
F8
80
80
80
80
80
ENDCHAR
STARTCHAR S sigma
ENCODING 83
SWIDTH 667 0
DWIDTH 9 0
BBX 8 11 1 0
BITMAP
FF
80
40
20
10
08
10
20
40
80
FF
ENDCHAR
STARTCHAR T tau
ENCODING 84
SWIDTH 611 0
DWIDTH 9 0
BBX 9 11 0 0
BITMAP
FF80
0800
0800
0800
0800
0800
0800
0800
0800
0800
0800
ENDCHAR
STARTCHAR U upsilon
ENCODING 85
SWIDTH 667 0
DWIDTH 9 0
BBX 9 11 0 0
BITMAP
8080
4100
4100
2200
2200
1400
0800
0800
0800
0800
0800
ENDCHAR
STARTCHAR V digamma
ENCODING 86
SWIDTH 667 0
DWIDTH 8 0
BBX 7 11 1 0
BITMAP
FE
80
80
80
80
FE
80
80
80
80
80
ENDCHAR
STARTCHAR W omega
ENCODING 87
SWIDTH 944 0
DWIDTH 10 0
BBX 9 11 1 0
BITMAP
1C00
2200
4100
4100
8080
8080
4100
4100
2200
1400
F780
ENDCHAR
STARTCHAR X chi
ENCODING 88
SWIDTH 667 0
DWIDTH 10 0
BBX 8 11 1 0
BITMAP
81
81
42
24
18
18
24
42
42
81
81
ENDCHAR
STARTCHAR Y psi
ENCODING 89
SWIDTH 667 0
DWIDTH 8 0
BBX 7 11 0 0
BITMAP
92
92
92
92
54
38
10
10
10
10
10
ENDCHAR
STARTCHAR Z zeta
ENCODING 90
SWIDTH 611 0
DWIDTH 9 0
BBX 7 11 1 0
BITMAP
FE
02
04
08
18
10
20
60
40
80
FE
ENDCHAR
STARTCHAR bracketleft
ENCODING 91
SWIDTH 278 0
DWIDTH 4 0
BBX 3 14 1 -3
BITMAP
E0
80
80
80
80
80
80
80
80
80
80
80
80
E0
ENDCHAR
STARTCHAR backslash
ENCODING 92
SWIDTH 278 0
DWIDTH 4 0
BBX 4 11 0 0
BITMAP
80
80
40
40
40
20
20
20
10
10
10
ENDCHAR
STARTCHAR bracketright
ENCODING 93
SWIDTH 278 0
DWIDTH 4 0
BBX 3 14 0 -3
BITMAP
E0
20
20
20
20
20
20
20
20
20
20
20
20
E0
ENDCHAR
STARTCHAR asciicircum
ENCODING 94
SWIDTH 469 0
DWIDTH 7 0
BBX 7 4 0 6
BITMAP
10
28
44
82
ENDCHAR
STARTCHAR dagger
ENCODING 95
SWIDTH 556 0
DWIDTH 8 0
BBX 7 14 0 -3
BITMAP
10
10
10
10
FE
10
10
10
10
10
10
10
10
10
ENDCHAR
STARTCHAR quoteleft
ENCODING 96
SWIDTH 222 0
DWIDTH 3 0
BBX 2 3 0 8
BITMAP
40
80
C0
ENDCHAR
STARTCHAR a alpha
ENCODING 97
SWIDTH 556 0
DWIDTH 9 0
BBX 8 7 1 0
BITMAP
31
4A
8A
84
8A
4A
31
ENDCHAR
STARTCHAR b beta
ENCODING 98
SWIDTH 556 0
DWIDTH 8 0
BBX 6 13 1 -2
BITMAP
70
88
88
88
88
B0
88
84
84
C4
B8
80
80
ENDCHAR
STARTCHAR c xi
ENCODING 99
SWIDTH 500 0
DWIDTH 7 0
BBX 6 13 1 -2
BITMAP
98
60
40
4C
30
40
80
80
80
78
04
04
38
ENDCHAR
STARTCHAR d delta
ENCODING 100
SWIDTH 556 0
DWIDTH 6 0
BBX 5 10 1 0
BITMAP
60
90
80
40
20
50
88
88
88
70
ENDCHAR
STARTCHAR e epsilon
ENCODING 101
SWIDTH 556 0
DWIDTH 6 0
BBX 5 8 1 0
BITMAP
70
88
80
70
80
80
88
70
ENDCHAR
STARTCHAR f phi
ENCODING 102
SWIDTH 278 0
DWIDTH 8 0
BBX 7 11 0 -2
BITMAP
10
10
10
7C
92
92
92
7C
10
10
10
ENDCHAR
STARTCHAR g gamma
ENCODING 103
SWIDTH 556 0
DWIDTH 8 0
BBX 7 10 1 -2
BITMAP
82
82
44
44
28
10
10
28
28
10
ENDCHAR
STARTCHAR h eta
ENCODING 104
SWIDTH 556 0
DWIDTH 9 0
BBX 8 10 1 -2
BITMAP
DC
62
42
42
42
42
42
42
03
01
ENDCHAR
STARTCHAR i iota
ENCODING 105
SWIDTH 422 0
DWIDTH 4 0
BBX 3 8 1 0
BITMAP
40
C0
40
40
40
40
60
40
ENDCHAR
STARTCHAR j word end sigma
ENCODING 106
SWIDTH 722 0
DWIDTH 7 0
BBX 6 10 0 -2
BITMAP
3C
40
80
80
80
40
38
04
04
38
ENDCHAR
STARTCHAR k kappa
ENCODING 107
SWIDTH 500 0
DWIDTH 6 0
BBX 5 8 1 0
BITMAP
88
90
A0
C0
A0
90
88
88
ENDCHAR
STARTCHAR l lambda
ENCODING 108
SWIDTH 222 0
DWIDTH 8 0
BBX 7 11 1 0
BITMAP
40
A0
20
10
10
08
18
24
24
42
42
ENDCHAR
STARTCHAR m mu
ENCODING 109
SWIDTH 833 0
DWIDTH 8 0
BBX 7 10 1 -2
BITMAP
84
84
84
84
84
84
CC
B6
80
80
ENDCHAR
STARTCHAR n nu
ENCODING 110
SWIDTH 556 0
DWIDTH 8 0
BBX 7 8 1 0
BITMAP
82
82
82
44
44
28
28
10
ENDCHAR
STARTCHAR o omicron
ENCODING 111
SWIDTH 556 0
DWIDTH 8 0
BBX 6 8 1 0
BITMAP
78
CC
84
84
84
84
CC
78
ENDCHAR
STARTCHAR p pi
ENCODING 112
SWIDTH 556 0
DWIDTH 8 0
BBX 7 8 1 0
BITMAP
FE
44
44
44
44
44
44
44
ENDCHAR
STARTCHAR q theta
ENCODING 113
SWIDTH 556 0
DWIDTH 6 0
BBX 5 11 1 0
BITMAP
20
50
88
88
88
F8
88
88
88
50
20
ENDCHAR
STARTCHAR r rho
ENCODING 114
SWIDTH 333 0
DWIDTH 8 0
BBX 7 10 1 -2
BITMAP
78
84
82
82
82
82
C4
B8
80
80
ENDCHAR
STARTCHAR s sigma
ENCODING 115
SWIDTH 500 0
DWIDTH 10 0
BBX 9 8 1 0
BITMAP
3F80
4400
8200
8200
8200
8200
4400
3800
ENDCHAR
STARTCHAR t tau
ENCODING 116
SWIDTH 278 0
DWIDTH 6 0
BBX 5 8 0 0
BITMAP
F8
20
20
20
20
20
28
10
ENDCHAR
STARTCHAR u upsilon
ENCODING 117
SWIDTH 556 0
DWIDTH 8 0
BBX 7 8 1 0
BITMAP
C4
42
42
42
42
42
22
1C
ENDCHAR
STARTCHAR v digamma
ENCODING 118
SWIDTH 500 0
DWIDTH 8 0
BBX 6 10 1 -2
BITMAP
FC
80
80
80
FC
80
80
80
80
80
ENDCHAR
STARTCHAR w omega
ENCODING 119
SWIDTH 722 0
DWIDTH 9 0
BBX 9 8 0 0
BITMAP
4100
8880
8880
8880
8880
8880
4900
3600
ENDCHAR
STARTCHAR x chi
ENCODING 120
SWIDTH 500 0
DWIDTH 7 0
BBX 6 10 1 -2
BITMAP
84
44
48
28
30
30
50
48
88
84
ENDCHAR
STARTCHAR y psi
ENCODING 121
SWIDTH 500 0
DWIDTH 8 0
BBX 7 10 0 -2
BITMAP
92
92
92
92
54
38
10
10
10
10
ENDCHAR
STARTCHAR z zeta
ENCODING 122
SWIDTH 500 0
DWIDTH 7 0
BBX 6 13 0 -2
BITMAP
98
B0
40
80
80
80
80
80
80
40
38
04
38
ENDCHAR
STARTCHAR braceleft
ENCODING 123
SWIDTH 334 0
DWIDTH 5 0
BBX 5 14 0 -3
BITMAP
18
20
20
20
20
40
80
40
20
20
20
20
20
18
ENDCHAR
STARTCHAR bar
ENCODING 124
SWIDTH 260 0
DWIDTH 3 0
BBX 1 14 1 -3
BITMAP
80
80
80
80
80
80
80
80
80
80
80
80
80
80
ENDCHAR
STARTCHAR braceright
ENCODING 125
SWIDTH 334 0
DWIDTH 5 0
BBX 5 14 0 -3
BITMAP
C0
20
20
20
20
10
08
10
20
20
20
20
20
C0
ENDCHAR
STARTCHAR asciitilde
ENCODING 126
SWIDTH 584 0
DWIDTH 8 0
BBX 6 3 1 3
BITMAP
64
B4
98
ENDCHAR
STARTCHAR a alpha&asper.
ENCODING 127
SWIDTH 556 0
DWIDTH 9 0
BBX 8 11 1 0
BITMAP
18
10
08
00
31
4A
8A
84
8A
4A
31
ENDCHAR
STARTCHAR e epsilon&asper
ENCODING 128
SWIDTH 556 0
DWIDTH 6 0
BBX 5 12 1 0
BITMAP
60
40
20
00
70
88
80
70
80
80
88
70
ENDCHAR
STARTCHAR h eta&asper.
ENCODING 129
SWIDTH 556 0
DWIDTH 9 0
BBX 8 14 1 -2
BITMAP
18
10
08
00
DC
62
42
42
42
42
42
42
03
01
ENDCHAR
STARTCHAR i iota&asper.
ENCODING 130
SWIDTH 422 0
DWIDTH 4 0
BBX 3 12 1 0
BITMAP
C0
80
40
00
40
C0
40
40
40
40
60
40
ENDCHAR
STARTCHAR o omicron&asper.
ENCODING 131
SWIDTH 556 0
DWIDTH 8 0
BBX 6 12 1 0
BITMAP
30
20
10
00
78
CC
84
84
84
84
CC
78
ENDCHAR
STARTCHAR r rho&asper.
ENCODING 132
SWIDTH 333 0
DWIDTH 8 0
BBX 7 14 1 -2
BITMAP
30
20
10
00
78
84
82
82
82
82
C4
B8
80
80
ENDCHAR
STARTCHAR u upsilon&asper.
ENCODING 133
SWIDTH 556 0
DWIDTH 8 0
BBX 7 12 1 0
BITMAP
30
20
10
00
C4
42
42
42
42
42
22
1C
ENDCHAR
STARTCHAR w omega&asper.
ENCODING 134
SWIDTH 722 0
DWIDTH 9 0
BBX 9 12 0 0
BITMAP
0C00
0800
0400
0000
4100
8880
8880
8880
8880
8880
4900
3600
ENDCHAR
STARTCHAR A Alpha&asper.
ENCODING 135
SWIDTH 667 0
DWIDTH 11 0
BBX 9 12 1 0
BITMAP
C000
8800
4800
1400
1400
2200
2200
4100
7F00
4100
8080
8080
ENDCHAR
STARTCHAR E Epsilon&asper.
ENCODING 136
SWIDTH 667 0
DWIDTH 11 0
BBX 10 12 1 0
BITMAP
6000
4FE0
2800
0800
0800
0800
0FC0
0800
0800
0800
0800
0FE0
ENDCHAR
STARTCHAR H Eta&asper.
ENCODING 137
SWIDTH 722 0
DWIDTH 12 0
BBX 11 11 0 0
BITMAP
D020
9020
5020
1020
1020
1FE0
1020
1020
1020
1020
1020
ENDCHAR
STARTCHAR I Iota&asper.
ENCODING 138
SWIDTH 278 0
DWIDTH 5 0
BBX 4 11 1 0
BITMAP
D0
90
50
10
10
10
10
10
10
10
10
ENDCHAR
STARTCHAR O Omicron&asper.
ENCODING 139
SWIDTH 778 0
DWIDTH 11 0
BBX 9 13 1 0
BITMAP
C000
8000
5C00
6300
4100
8080
8080
8080
8080
8080
4100
6300
1C00
ENDCHAR
STARTCHAR R rho&asper.
ENCODING 140
SWIDTH 722 0
DWIDTH 11 0
BBX 10 11 1 0
BITMAP
DF00
9080
5040
1040
1080
1F00
1000
1000
1000
1000
1000
ENDCHAR
STARTCHAR U Upsilon&asper.
ENCODING 141
SWIDTH 667 0
DWIDTH 13 0
BBX 12 11 0 0
BITMAP
D010
8820
4820
0440
0440
0280
0100
0100
0100
0100
0100
ENDCHAR
STARTCHAR W Omega&asper.
ENCODING 142
SWIDTH 944 0
DWIDTH 10 0
BBX 9 13 1 0
BITMAP
C000
8000
5C00
2200
4100
4100
8080
8080
4100
4100
2200
1400
F780
ENDCHAR
STARTCHAR a alpha&acu.
ENCODING 143
SWIDTH 556 0
DWIDTH 9 0
BBX 8 10 1 0
BITMAP
08
10
00
31
4A
8A
84
8A
4A
31
ENDCHAR
STARTCHAR e epsilon&acu
ENCODING 144
SWIDTH 556 0
DWIDTH 6 0
BBX 5 11 1 0
BITMAP
20
40
00
70
88
80
70
80
80
88
70
ENDCHAR
STARTCHAR h eta&acu.
ENCODING 145
SWIDTH 556 0
DWIDTH 9 0
BBX 8 13 1 -2
BITMAP
08
10
00
DC
62
42
42
42
42
42
42
03
01
ENDCHAR
STARTCHAR i iota&acu.
ENCODING 146
SWIDTH 422 0
DWIDTH 4 0
BBX 3 11 1 0
BITMAP
40
80
00
40
C0
40
40
40
40
60
40
ENDCHAR
STARTCHAR o omicron&acu.
ENCODING 147
SWIDTH 556 0
DWIDTH 8 0
BBX 6 11 1 0
BITMAP
10
20
00
78
CC
84
84
84
84
CC
78
ENDCHAR
STARTCHAR r rho&acu.
ENCODING 148
SWIDTH 333 0
DWIDTH 8 0
BBX 7 13 1 -2
BITMAP
10
20
00
78
84
82
82
82
82
C4
B8
80
80
ENDCHAR
STARTCHAR u upsilon&acu.
ENCODING 149
SWIDTH 556 0
DWIDTH 8 0
BBX 7 11 1 0
BITMAP
10
20
00
C4
42
42
42
42
42
22
1C
ENDCHAR
STARTCHAR w omega&acu.
ENCODING 150
SWIDTH 722 0
DWIDTH 9 0
BBX 9 11 0 0
BITMAP
0400
0800
0000
4100
8880
8880
8880
8880
8880
4900
3600
ENDCHAR
STARTCHAR A alpha&acu.
ENCODING 151
SWIDTH 667 0
DWIDTH 11 0
BBX 9 11 1 0
BITMAP
4800
8800
1400
1400
2200
2200
4100
7F00
4100
8080
8080
ENDCHAR
STARTCHAR a alpha&grave.
ENCODING 152
SWIDTH 556 0
DWIDTH 9 0
BBX 8 10 1 0
BITMAP
10
08
00
31
4A
8A
84
8A
4A
31
ENDCHAR
STARTCHAR e epsilon&grave
ENCODING 153
SWIDTH 556 0
DWIDTH 6 0
BBX 5 11 1 0
BITMAP
40
20
00
70
88
80
70
80
80
88
70
ENDCHAR
STARTCHAR h eta&grave.
ENCODING 154
SWIDTH 556 0
DWIDTH 9 0
BBX 8 13 1 -2
BITMAP
10
08
00
DC
62
42
42
42
42
42
42
03
01
ENDCHAR
STARTCHAR i iota&grave.
ENCODING 155
SWIDTH 422 0
DWIDTH 4 0
BBX 3 11 1 0
BITMAP
80
40
00
40
C0
40
40
40
40
60
40
ENDCHAR
STARTCHAR o omicron&grave.
ENCODING 156
SWIDTH 556 0
DWIDTH 8 0
BBX 6 11 1 0
BITMAP
20
10
00
78
CC
84
84
84
84
CC
78
ENDCHAR
STARTCHAR r rho&grave.
ENCODING 157
SWIDTH 333 0
DWIDTH 8 0
BBX 7 13 1 -2
BITMAP
20
10
00
78
84
82
82
82
82
C4
B8
80
80
ENDCHAR
STARTCHAR u upsilon&grave.
ENCODING 158
SWIDTH 556 0
DWIDTH 8 0
BBX 7 11 1 0
BITMAP
20
10
00
C4
42
42
42
42
42
22
1C
ENDCHAR
STARTCHAR a alpha&lenis.
ENCODING 159
SWIDTH 556 0
DWIDTH 9 0
BBX 8 11 1 0
BITMAP
18
08
10
00
31
4A
8A
84
8A
4A
31
ENDCHAR
STARTCHAR e epsilon&lenis
ENCODING 160
SWIDTH 556 0
DWIDTH 6 0
BBX 5 12 1 0
BITMAP
60
20
40
00
70
88
80
70
80
80
88
70
ENDCHAR
STARTCHAR h eta&lenis.
ENCODING 161
SWIDTH 556 0
DWIDTH 9 0
BBX 8 14 1 -2
BITMAP
18
08
10
00
DC
62
42
42
42
42
42
42
03
01
ENDCHAR
STARTCHAR i iota&lenis.
ENCODING 162
SWIDTH 422 0
DWIDTH 4 0
BBX 3 12 1 0
BITMAP
C0
40
80
00
40
C0
40
40
40
40
60
40
ENDCHAR
STARTCHAR o omicron&lenis.
ENCODING 163
SWIDTH 556 0
DWIDTH 8 0
BBX 6 12 1 0
BITMAP
30
10
20
00
78
CC
84
84
84
84
CC
78
ENDCHAR
STARTCHAR r rho&lenis.
ENCODING 164
SWIDTH 333 0
DWIDTH 8 0
BBX 7 14 1 -2
BITMAP
30
10
20
00
78
84
82
82
82
82
C4
B8
80
80
ENDCHAR
STARTCHAR u upsilon&lenis.
ENCODING 165
SWIDTH 556 0
DWIDTH 8 0
BBX 7 12 1 0
BITMAP
30
10
20
00
C4
42
42
42
42
42
22
1C
ENDCHAR
STARTCHAR w omega&lenis.
ENCODING 166
SWIDTH 722 0
DWIDTH 9 0
BBX 9 12 0 0
BITMAP
0C00
0400
0800
0000
4100
8880
8880
8880
8880
8880
4900
3600
ENDCHAR
STARTCHAR A alpha&lenis.
ENCODING 167
SWIDTH 667 0
DWIDTH 11 0
BBX 9 12 1 0
BITMAP
C000
4800
8800
1400
1400
2200
2200
4100
7F00
4100
8080
8080
ENDCHAR
STARTCHAR E epsilon&lenis.
ENCODING 168
SWIDTH 667 0
DWIDTH 11 0
BBX 10 12 1 0
BITMAP
6000
2FE0
4800
0800
0800
0800
0FC0
0800
0800
0800
0800
0FE0
ENDCHAR
STARTCHAR H eta&lenis.
ENCODING 169
SWIDTH 722 0
DWIDTH 12 0
BBX 11 11 0 0
BITMAP
D020
5020
9020
1020
1020
1FE0
1020
1020
1020
1020
1020
ENDCHAR
STARTCHAR I iota&lenis.
ENCODING 170
SWIDTH 278 0
DWIDTH 5 0
BBX 4 11 1 0
BITMAP
D0
50
90
10
10
10
10
10
10
10
10
ENDCHAR
STARTCHAR O omicron&lenis.
ENCODING 171
SWIDTH 778 0
DWIDTH 11 0
BBX 9 13 1 0
BITMAP
C000
4000
9C00
6300
4100
8080
8080
8080
8080
8080
4100
6300
1C00
ENDCHAR
STARTCHAR R rho&lenis.
ENCODING 172
SWIDTH 722 0
DWIDTH 11 0
BBX 10 11 1 0
BITMAP
DF00
5080
9040
1040
1080
1F00
1000
1000
1000
1000
1000
ENDCHAR
STARTCHAR U upsilon&lenis.
ENCODING 173
SWIDTH 667 0
DWIDTH 13 0
BBX 12 11 0 0
BITMAP
D010
4820
8820
0440
0440
0280
0100
0100
0100
0100
0100
ENDCHAR
STARTCHAR W omega&lenis.
ENCODING 174
SWIDTH 944 0
DWIDTH 10 0
BBX 9 13 1 0
BITMAP
C000
4000
9C00
2200
4100
4100
8080
8080
4100
4100
2200
1400
F780
ENDCHAR
STARTCHAR a alpha&mac.
ENCODING 175
SWIDTH 556 0
DWIDTH 9 0
BBX 8 9 1 0
BITMAP
7E
00
31
4A
8A
84
8A
4A
31
ENDCHAR
STARTCHAR e epsilon&mac.
ENCODING 176
SWIDTH 556 0
DWIDTH 6 0
BBX 5 10 1 0
BITMAP
F8
00
70
88
80
70
80
80
88
70
ENDCHAR
STARTCHAR h eta&mac.
ENCODING 177
SWIDTH 556 0
DWIDTH 9 0
BBX 8 12 1 -2
BITMAP
7E
00
DC
62
42
42
42
42
42
42
03
01
ENDCHAR
STARTCHAR i iota&mac.
ENCODING 178
SWIDTH 422 0
DWIDTH 6 0
BBX 5 10 1 0
BITMAP
F8
00
20
60
20
20
20
20
30
20
ENDCHAR
STARTCHAR o omicron&mac.
ENCODING 179
SWIDTH 556 0
DWIDTH 8 0
BBX 6 10 1 0
BITMAP
7E
00
78
CC
84
84
84
84
CC
78
ENDCHAR
STARTCHAR r rho&mac.
ENCODING 180
SWIDTH 333 0
DWIDTH 8 0
BBX 7 12 1 -2
BITMAP
7E
00
78
84
82
82
82
82
C4
B8
80
80
ENDCHAR
STARTCHAR u upsilon&mac.
ENCODING 181
SWIDTH 556 0
DWIDTH 8 0
BBX 7 10 1 0
BITMAP
7E
00
C4
42
42
42
42
42
22
1C
ENDCHAR
STARTCHAR w omega&mac.
ENCODING 182
SWIDTH 722 0
DWIDTH 9 0
BBX 9 10 0 0
BITMAP
3E00
0000
4100
8880
8880
8880
8880
8880
4900
3600
ENDCHAR
STARTCHAR a alpha&frown.
ENCODING 183
SWIDTH 556 0
DWIDTH 9 0
BBX 8 10 1 0
BITMAP
18
24
00
31
4A
8A
84
8A
4A
31
ENDCHAR
STARTCHAR e epsilon&frown.
ENCODING 184
SWIDTH 556 0
DWIDTH 6 0
BBX 5 11 1 0
BITMAP
30
48
00
70
88
80
70
80
80
88
70
ENDCHAR
STARTCHAR h eta&frown.
ENCODING 185
SWIDTH 556 0
DWIDTH 9 0
BBX 8 13 1 -2
BITMAP
18
24
00
DC
62
42
42
42
42
42
42
03
01
ENDCHAR
STARTCHAR i iota&frown.
ENCODING 186
SWIDTH 422 0
DWIDTH 6 0
BBX 5 11 1 0
BITMAP
60
90
00
20
60
20
20
20
20
30
20
ENDCHAR
STARTCHAR o omicron&frown.
ENCODING 187
SWIDTH 556 0
DWIDTH 8 0
BBX 6 11 1 0
BITMAP
30
48
00
78
CC
84
84
84
84
CC
78
ENDCHAR
STARTCHAR r rho&frown.
ENCODING 188
SWIDTH 333 0
DWIDTH 8 0
BBX 7 13 1 -2
BITMAP
30
48
00
78
84
82
82
82
82
C4
B8
80
80
ENDCHAR
STARTCHAR u upsilon&frown.
ENCODING 189
SWIDTH 556 0
DWIDTH 8 0
BBX 7 11 1 0
BITMAP
30
48
00
C4
42
42
42
42
42
22
1C
ENDCHAR
STARTCHAR w omega&frown.
ENCODING 190
SWIDTH 722 0
DWIDTH 9 0
BBX 9 11 0 0
BITMAP
0C00
1200
0000
4100
8880
8880
8880
8880
8880
4900
3600
ENDCHAR
STARTCHAR a alpha&breve.
ENCODING 191
SWIDTH 556 0
DWIDTH 9 0
BBX 8 10 1 0
BITMAP
24
18
00
31
4A
8A
84
8A
4A
31
ENDCHAR
STARTCHAR e epsilon&breve.
ENCODING 192
SWIDTH 556 0
DWIDTH 6 0
BBX 5 11 1 0
BITMAP
48
30
00
70
88
80
70
80
80
88
70
ENDCHAR
STARTCHAR h eta&breve.
ENCODING 193
SWIDTH 556 0
DWIDTH 9 0
BBX 8 13 1 -2
BITMAP
24
18
00
DC
62
42
42
42
42
42
42
03
01
ENDCHAR
STARTCHAR i iota&breve.
ENCODING 194
SWIDTH 422 0
DWIDTH 6 0
BBX 5 11 1 0
BITMAP
90
60
00
20
60
20
20
20
20
30
20
ENDCHAR
STARTCHAR o omicron&breve.
ENCODING 195
SWIDTH 556 0
DWIDTH 8 0
BBX 6 11 1 0
BITMAP
48
30
00
78
CC
84
84
84
84
CC
78
ENDCHAR
STARTCHAR r rho&breve.
ENCODING 196
SWIDTH 333 0
DWIDTH 8 0
BBX 7 13 1 -2
BITMAP
48
30
00
78
84
82
82
82
82
C4
B8
80
80
ENDCHAR
STARTCHAR u upsilon&breve.
ENCODING 197
SWIDTH 556 0
DWIDTH 8 0
BBX 7 11 1 0
BITMAP
48
30
00
C4
42
42
42
42
42
22
1C
ENDCHAR
STARTCHAR w omega&breve.
ENCODING 198
SWIDTH 722 0
DWIDTH 9 0
BBX 9 11 0 0
BITMAP
1200
0C00
0000
4100
8880
8880
8880
8880
8880
4900
3600
ENDCHAR
STARTCHAR a alpha&uml.
ENCODING 199
SWIDTH 556 0
DWIDTH 9 0
BBX 8 9 1 0
BITMAP
24
00
31
4A
8A
84
8A
4A
31
ENDCHAR
STARTCHAR e epsilon&uml.
ENCODING 200
SWIDTH 556 0
DWIDTH 6 0
BBX 5 10 1 0
BITMAP
48
00
70
88
80
70
80
80
88
70
ENDCHAR
STARTCHAR h eta&uml.
ENCODING 201
SWIDTH 556 0
DWIDTH 9 0
BBX 8 12 1 -2
BITMAP
24
00
DC
62
42
42
42
42
42
42
03
01
ENDCHAR
STARTCHAR i iota&uml.
ENCODING 202
SWIDTH 422 0
DWIDTH 6 0
BBX 5 10 1 0
BITMAP
24
00
20
60
20
20
20
20
30
20
ENDCHAR
STARTCHAR o omicron&uml.
ENCODING 203
SWIDTH 556 0
DWIDTH 8 0
BBX 6 10 1 0
BITMAP
48
00
78
CC
84
84
84
84
CC
78
ENDCHAR
STARTCHAR r rho&uml.
ENCODING 204
SWIDTH 333 0
DWIDTH 8 0
BBX 7 12 1 -2
BITMAP
48
00
78
84
82
82
82
82
C4
B8
80
80
ENDCHAR
STARTCHAR u upsilon&uml.
ENCODING 205
SWIDTH 556 0
DWIDTH 8 0
BBX 7 10 1 0
BITMAP
48
00
C4
42
42
42
42
42
22
1C
ENDCHAR
STARTCHAR w omega&uml.
ENCODING 206
SWIDTH 722 0
DWIDTH 9 0
BBX 9 10 0 0
BITMAP
1200
0000
4100
8880
8880
8880
8880
8880
4900
3600
ENDCHAR
STARTCHAR w omega&grave.
ENCODING 207
SWIDTH 722 0
DWIDTH 9 0
BBX 9 11 0 0
BITMAP
0800
0400
0000
4100
8880
8880
8880
8880
8880
4900
3600
ENDCHAR
STARTCHAR a alpha&asper.&acu.
ENCODING 208
SWIDTH 556 0
DWIDTH 9 0
BBX 8 11 1 0
BITMAP
30
22
14
00
31
4A
8A
84
8A
4A
31
ENDCHAR
STARTCHAR e epsilon&asper.&acu.
ENCODING 209
SWIDTH 556 0
DWIDTH 6 0
BBX 5 12 1 0
BITMAP
C0
88
50
00
70
88
80
70
80
80
88
70
ENDCHAR
STARTCHAR h eta&asper.&acu.
ENCODING 210
SWIDTH 556 0
DWIDTH 9 0
BBX 8 14 1 -2
BITMAP
30
22
14
00
DC
62
42
42
42
42
42
42
03
01
ENDCHAR
STARTCHAR i iota&asper.&acu.
ENCODING 211
SWIDTH 422 0
DWIDTH 6 0
BBX 5 12 1 0
BITMAP
C0
88
50
00
10
30
10
10
10
10
18
10
ENDCHAR
STARTCHAR o omicron&asper.&acu.
ENCODING 212
SWIDTH 556 0
DWIDTH 8 0
BBX 6 12 1 0
BITMAP
60
44
28
00
78
CC
84
84
84
84
CC
78
ENDCHAR
STARTCHAR u upsilon&asper.&acu.
ENCODING 213
SWIDTH 556 0
DWIDTH 8 0
BBX 7 12 1 0
BITMAP
60
44
28
00
C4
42
42
42
42
42
22
1C
ENDCHAR
STARTCHAR w omega&asper.&acu.
ENCODING 214
SWIDTH 722 0
DWIDTH 9 0
BBX 9 12 0 0
BITMAP
3000
2200
1400
0000
4100
8880
8880
8880
8880
8880
4900
3600
ENDCHAR
STARTCHAR A Alpha&asper.&acu.
ENCODING 215
SWIDTH 667 0
DWIDTH 12 0
BBX 11 12 1 0
BITMAP
C000
8A00
5200
0500
0500
0880
0880
1040
1FC0
1040
2020
2020
ENDCHAR
STARTCHAR E Epsilon&asper.&acu.
ENCODING 216
SWIDTH 667 0
DWIDTH 14 0
BBX 13 12 1 0
BITMAP
C400
8BF8
5200
0200
0200
0200
03F0
0200
0200
0200
0200
03F8
ENDCHAR
STARTCHAR H Eta&asper.&acu.
ENCODING 217
SWIDTH 722 0
DWIDTH 12 0
BBX 11 11 0 0
BITMAP
D220
9420
5020
1020
1020
1FE0
1020
1020
1020
1020
1020
ENDCHAR
STARTCHAR I Iota&asper.&acu.
ENCODING 218
SWIDTH 278 0
DWIDTH 8 0
BBX 7 11 1 0
BITMAP
D2
94
50
10
10
10
10
10
10
10
10
ENDCHAR
STARTCHAR O Omicron&asper.&acu.
ENCODING 219
SWIDTH 778 0
DWIDTH 11 0
BBX 9 13 1 0
BITMAP
C080
8100
5C00
6300
4100
8080
8080
8080
8080
8080
4100
6300
1C00
ENDCHAR
STARTCHAR U Upsilon&asper.&acu.
ENCODING 220
SWIDTH 667 0
DWIDTH 13 0
BBX 12 11 0 0
BITMAP
D090
8920
4820
0440
0440
0280
0100
0100
0100
0100
0100
ENDCHAR
STARTCHAR W Omega&asper.&acu.
ENCODING 221
SWIDTH 944 0
DWIDTH 10 0
BBX 9 13 1 0
BITMAP
C080
8100
5C00
2200
4100
4100
8080
8080
4100
4100
2200
1400
F780
ENDCHAR
STARTCHAR h eta&asper.&frown.
ENCODING 222
SWIDTH 556 0
DWIDTH 9 0
BBX 8 14 1 -2
BITMAP
C0
8C
52
00
DC
62
42
42
42
42
42
42
03
01
ENDCHAR
STARTCHAR u upsilon&asper.&frown.
ENCODING 223
SWIDTH 556 0
DWIDTH 8 0
BBX 7 12 1 0
BITMAP
C0
8C
52
00
C4
42
42
42
42
42
22
1C
ENDCHAR
STARTCHAR w omega&asper.&frown.
ENCODING 224
SWIDTH 722 0
DWIDTH 9 0
BBX 9 12 0 0
BITMAP
CC00
9200
4000
0000
4100
8880
8880
8880
8880
8880
4900
3600
ENDCHAR
STARTCHAR W Omega&asper.&frown.
ENCODING 225
SWIDTH 944 0
DWIDTH 11 0
BBX 10 14 1 0
BITMAP
CE00
9100
4000
0E00
1100
2080
2080
4040
4040
2080
2080
1100
0A00
7BC0
ENDCHAR
STARTCHAR a alpha&asper.&gra.
ENCODING 226
SWIDTH 556 0
DWIDTH 9 0
BBX 8 11 1 0
BITMAP
30
24
12
00
31
4A
8A
84
8A
4A
31
ENDCHAR
STARTCHAR e epsilon&asper.&gra.
ENCODING 227
SWIDTH 556 0
DWIDTH 6 0
BBX 5 12 1 0
BITMAP
C0
90
48
00
70
88
80
70
80
80
88
70
ENDCHAR
STARTCHAR o omicron&asper.&gra.
ENCODING 228
SWIDTH 556 0
DWIDTH 8 0
BBX 6 12 1 0
BITMAP
60
48
24
00
78
CC
84
84
84
84
CC
78
ENDCHAR
STARTCHAR a alpha&lenis.&acu.
ENCODING 229
SWIDTH 556 0
DWIDTH 9 0
BBX 8 11 1 0
BITMAP
30
12
24
00
31
4A
8A
84
8A
4A
31
ENDCHAR
STARTCHAR e epsilon&lenis.&acu.
ENCODING 230
SWIDTH 556 0
DWIDTH 6 0
BBX 5 12 1 0
BITMAP
C0
48
90
00
70
88
80
70
80
80
88
70
ENDCHAR
STARTCHAR h eta&lenis.&acu.
ENCODING 231
SWIDTH 556 0
DWIDTH 9 0
BBX 8 14 1 -2
BITMAP
30
12
24
00
DC
62
42
42
42
42
42
42
03
01
ENDCHAR
STARTCHAR i iota&lenis.&acu.
ENCODING 232
SWIDTH 422 0
DWIDTH 6 0
BBX 5 12 1 0
BITMAP
C0
48
90
00
10
30
10
10
10
10
18
10
ENDCHAR
STARTCHAR o omicron&lenis.&acu.
ENCODING 233
SWIDTH 556 0
DWIDTH 8 0
BBX 6 12 1 0
BITMAP
60
24
48
00
78
CC
84
84
84
84
CC
78
ENDCHAR
STARTCHAR u upsilon&lenis.&acu.
ENCODING 234
SWIDTH 556 0
DWIDTH 8 0
BBX 7 12 1 0
BITMAP
60
24
48
00
C4
42
42
42
42
42
22
1C
ENDCHAR
STARTCHAR w omega&lenis.&acu.
ENCODING 235
SWIDTH 722 0
DWIDTH 9 0
BBX 9 12 0 0
BITMAP
0C00
0480
0900
0000
4100
8880
8880
8880
8880
8880
4900
3600
ENDCHAR
STARTCHAR A Alpha&lenis.&acu.
ENCODING 236
SWIDTH 667 0
DWIDTH 12 0
BBX 11 12 1 0
BITMAP
C000
4A00
9200
0500
0500
0880
0880
1040
1FC0
1040
2020
2020
ENDCHAR
STARTCHAR E Epsilon&lenis.&acu.
ENCODING 237
SWIDTH 667 0
DWIDTH 14 0
BBX 13 12 1 0
BITMAP
C400
4BF8
9200
0200
0200
0200
03F0
0200
0200
0200
0200
03F8
ENDCHAR
STARTCHAR H Eta&lenis.&acu.
ENCODING 238
SWIDTH 722 0
DWIDTH 12 0
BBX 11 11 0 0
BITMAP
D220
5420
9020
1020
1020
1FE0
1020
1020
1020
1020
1020
ENDCHAR
STARTCHAR I Iota&lenis.&acu.
ENCODING 239
SWIDTH 278 0
DWIDTH 8 0
BBX 7 11 1 0
BITMAP
D2
54
90
10
10
10
10
10
10
10
10
ENDCHAR
STARTCHAR O Omicron&lenis.&acu.
ENCODING 240
SWIDTH 778 0
DWIDTH 11 0
BBX 9 13 1 0
BITMAP
C080
4100
9C00
6300
4100
8080
8080
8080
8080
8080
4100
6300
1C00
ENDCHAR
STARTCHAR U Upsilon&lenis.&acu.
ENCODING 241
SWIDTH 667 0
DWIDTH 13 0
BBX 12 11 0 0
BITMAP
D090
4920
8820
0440
0440
0280
0100
0100
0100
0100
0100
ENDCHAR
STARTCHAR W Omega&lenis.&acu.
ENCODING 242
SWIDTH 944 0
DWIDTH 10 0
BBX 9 13 1 0
BITMAP
C080
4100
9C00
2200
4100
4100
8080
8080
4100
4100
2200
1400
F780
ENDCHAR
STARTCHAR a alpha&lenis.&frown.
ENCODING 243
SWIDTH 556 0
DWIDTH 9 0
BBX 8 11 1 0
BITMAP
C0
4E
91
00
31
4A
8A
84
8A
4A
31
ENDCHAR
STARTCHAR h eta&lenis.&frown.
ENCODING 244
SWIDTH 556 0
DWIDTH 9 0
BBX 8 14 1 -2
BITMAP
C0
5C
A2
00
DC
62
42
42
42
42
42
42
03
01
ENDCHAR
STARTCHAR i iota&lenis.&frown.
ENCODING 245
SWIDTH 422 0
DWIDTH 7 0
BBX 6 12 1 0
BITMAP
C0
58
A4
00
10
30
10
10
10
10
18
10
ENDCHAR
STARTCHAR o omicron&lenis.&frown.
ENCODING 246
SWIDTH 556 0
DWIDTH 8 0
BBX 6 12 1 0
BITMAP
C0
58
A4
00
78
CC
84
84
84
84
CC
78
ENDCHAR
STARTCHAR u upsilon&lenis.&frown.
ENCODING 247
SWIDTH 556 0
DWIDTH 8 0
BBX 7 12 1 0
BITMAP
C0
5C
A2
00
C4
42
42
42
42
42
22
1C
ENDCHAR
STARTCHAR w omega&lenis.&frown.
ENCODING 248
SWIDTH 722 0
DWIDTH 9 0
BBX 9 11 0 0
BITMAP
CC00
5200
8000
4100
8880
8880
8880
8880
8880
4900
3600
ENDCHAR
STARTCHAR a alpha&lenis.&mac.
ENCODING 249
SWIDTH 556 0
DWIDTH 9 0
BBX 8 11 1 0
BITMAP
C0
40
9F
00
31
4A
8A
84
8A
4A
31
ENDCHAR
STARTCHAR i iota&lenis.&mac.
ENCODING 250
SWIDTH 422 0
DWIDTH 7 0
BBX 6 12 1 0
BITMAP
C0
40
BC
00
10
30
10
10
10
10
18
10
ENDCHAR
STARTCHAR e epsilon&lenis.&gra.
ENCODING 251
SWIDTH 556 0
DWIDTH 6 0
BBX 5 12 1 0
BITMAP
C0
50
88
00
70
88
80
70
80
80
88
70
ENDCHAR
ENDFONT
