#define cover_width 24
#define cover_height 20
static char cover_bits[] = {
   0x00, 0x00, 0x00, 0xfe, 0xff, 0x01, 0xfe, 0xff, 0x01, 0x02, 0x00, 0x01,
   0x02, 0x00, 0x01, 0x42, 0x49, 0x7f, 0x42, 0x49, 0x7f, 0x02, 0x00, 0x41,
   0x42, 0x00, 0x41, 0x42, 0x00, 0x41, 0x02, 0x00, 0x41, 0x42, 0x00, 0x41,
   0xfe, 0xff, 0x41, 0x40, 0x00, 0x40, 0x40, 0x00, 0x40, 0x40, 0x00, 0x40,
   0x40, 0x00, 0x40, 0x40, 0x00, 0x40, 0xc0, 0xff, 0x7f, 0x00, 0x00, 0x00};
