#define death_width 24
#define death_height 24
static char death_bits[] = {
   0x00, 0x00, 0x00, 0x00, 0x30, 0x78, 0x00, 0x18, 0x6c, 0x00, 0x18, 0x46,
   0x00, 0x30, 0x63, 0x00, 0xe0, 0x31, 0x00, 0xc0, 0x18, 0x00, 0xa0, 0x0d,
   0x00, 0x90, 0x07, 0x00, 0x48, 0x06, 0x00, 0x24, 0x0d, 0x00, 0x92, 0x18,
   0x00, 0x49, 0x18, 0x80, 0x24, 0x0c, 0x80, 0x12, 0x00, 0x40, 0x08, 0x00,
   0x40, 0x06, 0x00, 0xa0, 0x01, 0x00, 0x60, 0x00, 0x00, 0x00, 0x00, 0x00,
   0x00, 0x00, 0x00, 0x60, 0x00, 0x00, 0x60, 0x00, 0x00, 0x00, 0x00, 0x00};
