#define close_width 24
#define close_height 20
static char close_bits[] = {
   0x00, 0x00, 0x00, 0xfe, 0xff, 0x7f, 0x02, 0x00, 0x40, 0x7a, 0x00, 0x5e,
   0x0a, 0x00, 0x50, 0x0a, 0x00, 0x50, 0xca, 0x81, 0x53, 0x42, 0x00, 0x42,
   0x42, 0x00, 0x42, 0x02, 0x3c, 0x40, 0x02, 0x3c, 0x40, 0x42, 0x00, 0x42,
   0x42, 0x00, 0x42, 0xca, 0x81, 0x53, 0x0a, 0x00, 0x50, 0x0a, 0x00, 0x50,
   0x7a, 0x00, 0x5e, 0x02, 0x00, 0x40, 0xfe, 0xff, 0x7f, 0x00, 0x00, 0x00};
