#define back_width 8
#define back_height 8
static char back_bits[] = {
   0x21, 0x84, 0x22, 0x88, 0x12, 0x41, 0x04, 0x51};
