#define corner_width 2
#define corner_height 2
static char corner_bits[] = {
   0x02, 0x03};
