#define bordcll.bit_width 10
#define bordcll.bit_height 10
static char bordcll.bit_bits[] = {
   0x4b, 0x00, 0x4b, 0x00, 0x4b, 0x00, 0xcb, 0x03, 0x0b, 0x00, 0x0b, 0x00,
   0xfb, 0x03, 0x03, 0x00, 0xff, 0x03, 0xff, 0x03};
