#define bordc2.bit_width 10
#define bordc2.bit_height 10
static char bordc2.bit_bits[] = {
   0x4b, 0x00, 0x4b, 0x00, 0x4b, 0x00, 0x4b, 0x00, 0x4b, 0x00, 0x4b, 0x00,
   0x4b, 0x00, 0x4b, 0x00, 0x4b, 0x00, 0x4b, 0x00};
