#define bordc3.bit_width 10
#define bordc3.bit_height 10
static char bordc3.bit_bits[] = {
   0x48, 0x03, 0x48, 0x03, 0x48, 0x03, 0x48, 0x03, 0x48, 0x03, 0x48, 0x03,
   0x48, 0x03, 0x48, 0x03, 0x48, 0x03, 0x48, 0x03};
