#define bordc4.bit_width 10
#define bordc4.bit_height 10
static char bordc4.bit_bits[] = {
   0x00, 0x00, 0x00, 0x00, 0x00, 0x00, 0xff, 0x03, 0x00, 0x00, 0x00, 0x00,
   0xff, 0x03, 0x00, 0x00, 0xff, 0x03, 0xff, 0x03};
