#define bordclr.bit_width 10
#define bordclr.bit_height 10
static char bordclr.bit_bits[] = {
   0x48, 0x03, 0x48, 0x03, 0x48, 0x03, 0x4f, 0x03, 0x40, 0x03, 0x40, 0x03,
   0x7f, 0x03, 0x00, 0x03, 0xff, 0x03, 0xff, 0x03};
