#define mini.xbm_width 44
#define mini.xbm_height 30
static char mini.xbm_bits[] = {
   0xc0, 0x03, 0x00, 0x00, 0x00, 0x00, 0x20, 0x04, 0x00, 0x00, 0x00, 0x00,
   0x10, 0x08, 0x00, 0x00, 0x00, 0x00, 0x50, 0x0a, 0x00, 0x00, 0x00, 0x00,
   0x10, 0x08, 0x00, 0x00, 0x00, 0x00, 0xa0, 0x05, 0x00, 0x00, 0x00, 0x00,
   0x40, 0x02, 0x00, 0x00, 0x00, 0x00, 0x80, 0x01, 0x00, 0x00, 0x00, 0x00,
   0xc0, 0x03, 0x00, 0x00, 0x00, 0x00, 0xe0, 0x0f, 0x00, 0x00, 0x00, 0x00,
   0xb0, 0x19, 0x00, 0x00, 0x00, 0x00, 0x88, 0x31, 0x00, 0x00, 0xc0, 0x00,
   0x86, 0xe1, 0x00, 0x00, 0x20, 0x01, 0x80, 0x01, 0x00, 0x00, 0x20, 0x01,
   0x80, 0x01, 0x00, 0x02, 0xc0, 0x00, 0x80, 0x01, 0xf0, 0x07, 0xe0, 0x01,
   0x80, 0x01, 0x00, 0x08, 0xd0, 0x02, 0x80, 0x01, 0x00, 0x10, 0xc8, 0x04,
   0x80, 0x01, 0x00, 0x08, 0xc0, 0x00, 0xc0, 0x03, 0xf0, 0x07, 0xc0, 0x00,
   0xe0, 0x07, 0x00, 0x02, 0xc0, 0x00, 0x60, 0x06, 0x00, 0x00, 0x20, 0x01,
   0x30, 0x0c, 0x00, 0x00, 0x10, 0x02, 0x30, 0x0c, 0x00, 0x00, 0x08, 0x04,
   0x18, 0x18, 0x00, 0x00, 0x04, 0x08, 0x18, 0x18, 0x00, 0x00, 0x00, 0x00,
   0x0c, 0x30, 0x00, 0x00, 0x00, 0x00, 0x0c, 0x30, 0x00, 0x00, 0x00, 0x00,
   0x06, 0x60, 0x00, 0x00, 0x00, 0x00, 0x07, 0xe0, 0x00, 0x00, 0x00, 0x00};
