#define icon_right_bar_tile_bSC_width 5
#define icon_right_bar_tile_bSC_height 1
static char icon_right_bar_tile_bSC_bits[] = {
   0x18};
