#define icon_left_bar_tile_bSC_width 5
#define icon_left_bar_tile_bSC_height 1
static char icon_left_bar_tile_bSC_bits[] = {
   0x10};
