#define icon_tr_tile_bSC_width 5
#define icon_tr_tile_bSC_height 5
static char icon_tr_tile_bSC_bits[] = {
   0x00, 0x10, 0x18, 0x18, 0x19};
