#define right_arrow_width 16
#define right_arrow_height 16
#define right_arrow_x_hot -1
#define right_arrow_y_hot -1
static char right_arrow_bits[] = {
   0x00, 0x00, 0x00, 0x00, 0x00, 0x00, 0x00, 0x03, 0x00, 0x06, 0x00, 0x0c,
   0x00, 0x18, 0xff, 0x3f, 0x00, 0x18, 0x00, 0x0c, 0x00, 0x06, 0x00, 0x03,
   0x00, 0x00, 0x00, 0x00, 0x00, 0x00, 0x00, 0x00};
