
#define iImage_width 50
#define iImage_height 50
static char iImage_bits[] = {
   0x00, 0x00, 0x00, 0x00, 0x00, 0x00, 0x00, 0x00, 0x00, 0x00, 0x00, 0x00,
   0x00, 0x00, 0x00, 0x00, 0x00, 0x00, 0x00, 0x00, 0x00, 0x00, 0x00, 0x00,
   0x00, 0x00, 0x00, 0x00, 0x00, 0x00, 0x00, 0x00, 0x00, 0x00, 0x00, 0x00,
   0x00, 0x00, 0x00, 0x00, 0xe0, 0x00, 0x00, 0x00, 0x00, 0x00, 0x00, 0x00,
   0x00, 0x00, 0x00, 0x00, 0x00, 0x00, 0x38, 0x00, 0x00, 0x00, 0x00, 0x00,
   0x00, 0x00, 0x00, 0x00, 0xfe, 0x01, 0x00, 0xe0, 0x1d, 0x00, 0x00, 0xfc,
   0x03, 0x00, 0xf0, 0x00, 0x00, 0x00, 0xf8, 0x07, 0x00, 0xf0, 0x0e, 0x00,
   0xfc, 0xfb, 0x07, 0xe0, 0x79, 0x00, 0x00, 0x00, 0xf0, 0x0f, 0x00, 0xbc,
   0x03, 0x00, 0xf0, 0xef, 0x1f, 0x78, 0x1e, 0x00, 0x00, 0x00, 0xc0, 0x3f,
   0x00, 0xde, 0x01, 0x00, 0xe0, 0xdf, 0x3f, 0x3c, 0x0f, 0x00, 0x00, 0x00,
   0x80, 0x7f, 0x80, 0x77, 0x00, 0x00, 0x80, 0x7f, 0xff, 0x8c, 0x07, 0x00,
   0x00, 0x00, 0x00, 0xfe, 0xc1, 0x3b, 0x00, 0x00, 0x00, 0xfe, 0xfd, 0xe3,
   0x01, 0x00, 0x00, 0x00, 0x00, 0xfc, 0xf3, 0x0e, 0x00, 0x00, 0x00, 0xfc,
   0xfb, 0xf3, 0x00, 0x00, 0x00, 0x00, 0x00, 0xf0, 0x79, 0x1f, 0x00, 0x00,
   0x00, 0xf8, 0xf7, 0x3d, 0x00, 0x00, 0x00, 0x00, 0x00, 0xf0, 0xbe, 0x7f,
   0x00, 0x00, 0x00, 0xe0, 0x7b, 0x3e, 0x00, 0x00, 0x00, 0x00, 0x00, 0x3c,
   0x7f, 0xff, 0x00, 0x00, 0x00, 0xc0, 0x3d, 0xff, 0x00, 0x00, 0x00, 0x00,
   0x00, 0x1e, 0xff, 0xfe, 0x01, 0x00, 0x00, 0x70, 0x6f, 0xfe, 0x01, 0x00,
   0x00, 0x00, 0x80, 0x07, 0xfc, 0xfb, 0x07, 0x00, 0x00, 0xb8, 0xf7, 0xf9,
   0x07, 0x00, 0x00, 0x00, 0xc0, 0x03, 0xf0, 0xef, 0x1f, 0x00, 0x00, 0xee,
   0xf9, 0xf7, 0x0f, 0x00, 0x00, 0x00, 0xe0, 0x01, 0xe0, 0xdf, 0x3f, 0x00,
   0x00, 0xf7, 0xe0, 0xdf, 0x3f, 0x00, 0x00, 0x00, 0x78, 0x00, 0x80, 0x7f,
   0xff, 0x00, 0xc0, 0x3d, 0xc0, 0xbf, 0x7f, 0x00, 0x00, 0x00, 0x3c, 0x00,
   0x00, 0xff, 0x00, 0x00, 0xe0, 0x1e, 0x00, 0xff, 0xfe, 0x01, 0x00, 0x00,
   0x00, 0x00, 0x00, 0x00, 0x00, 0x00, 0x38, 0x00, 0x00, 0x00, 0x00, 0x00,
   0x00, 0x00, 0x00, 0x00, 0x00, 0x00, 0x00, 0x00, 0x0e, 0x00, 0x00, 0x00,
   0x00, 0x00, 0x00, 0x00, 0x00, 0x00, 0x00, 0x00, 0x00, 0x00, 0x00, 0x00,
   0x00, 0x00, 0x00, 0x00, 0x00, 0x00, 0x00, 0x00, 0x00, 0x00, 0x00, 0x00,
   0x00, 0x00, 0x00, 0x00, 0x00, 0x00, 0x00, 0x00, 0x00, 0x00, 0x00, 0x00,
   0x00, 0x00};

