#define xterm_ml_width 8
#define xterm_ml_height 16
static char xterm_ml_bits[] = {
   0x60, 0x60, 0x60, 0x60, 0x60, 0x60, 0x60, 0x60, 0x60, 0x60, 0x60, 0x60,
   0x60, 0x60, 0x60, 0x60};
