#define xterm_rm_width 8
#define xterm_rm_height 16
static char xterm_rm_bits[] = {
   0x06, 0x06, 0x06, 0x06, 0x06, 0x06, 0x06, 0x06, 0x06, 0x06, 0x06, 0x06,
   0x06, 0x06, 0x06, 0x06};
